<svg width="1920" height="2931" viewBox="0 0 1920 2931" fill="none" xmlns="http://www.w3.org/2000/svg">
<g opacity="0.15">
<mask id="mask0_43_548" style="mask-type:alpha" maskUnits="userSpaceOnUse" x="0" y="2000" width="1920" height="1000">
<rect x="1920" y="3000" width="1920" height="1000" transform="rotate(-180 1920 3000)" fill="url(#paint0_linear_43_548)"/>
</mask>
<g mask="url(#mask0_43_548)">
<path d="M1918.65 1893.17C1752.2 1923.33 1388.8 2003.79 1266.81 2084.34C1114.31 2185.02 886.936 2221.63 726.223 2232.66C565.509 2243.7 60.5412 2233.43 -48.0529 2136.44L-24.0824 2354.31C172.807 2310.76 597.488 2216.14 721.099 2186.1C882.246 2139.22 1285.31 2058.63 1608.4 2111.34C1717.67 2134.91 1943.16 2185.58 1970.98 2199.71" stroke="white" stroke-width="2"/>
<path d="M-6.80807 2337.06C160.716 2360.54 531.035 2397.92 672.115 2359.62C848.465 2311.75 1075.87 2348.18 1231.96 2388.03C1388.05 2427.87 1864.4 2595.74 1937.17 2721.86L1982.62 2507.44C1782 2487.15 1349.04 2444.03 1222.24 2433.85C1054.52 2427.92 646.489 2378.24 356.152 2227.01C259.759 2170.41 61.4735 2051.68 39.4819 2029.56" stroke="white" stroke-width="2"/>
<path d="M-9.64425 2585.94C156.452 2618 524.359 2674.37 667.221 2643.38C845.799 2604.64 1071.03 2652.72 1224.86 2700.53C1378.7 2748.34 1845.79 2940.48 1911.98 3070.17L1968.39 2858.38C1769.08 2827.8 1338.92 2762.48 1212.8 2745.8C1045.61 2731.25 640.672 2660.66 358.494 2494.7C265.138 2433.22 73.2192 2304.45 52.394 2281.23" stroke="white" stroke-width="2"/>
<path d="M1548.51 3123.78C1392.67 3057.97 1044.46 2926.52 898.272 2927.21C715.542 2928.08 505.178 2834.34 364.606 2755.66C224.033 2676.98 -193.062 2392.15 -230.909 2251.55L-330.024 2447.04C-141.382 2518.29 265.88 2671.4 385.79 2713.88C546.334 2762.78 927.828 2915.82 1169.45 3136.69C1248.03 3216.19 1409.07 3381.96 1424.63 3409" stroke="white" stroke-width="2"/>
</g>
</g>
<g opacity="0.15">
<mask id="mask1_43_548" style="mask-type:alpha" maskUnits="userSpaceOnUse" x="0" y="1000" width="1920" height="1000">
<rect x="1920" y="2000" width="1920" height="1000" transform="rotate(-180 1920 2000)" fill="url(#paint1_linear_43_548)"/>
</mask>
<g mask="url(#mask1_43_548)">
<path d="M1918.65 893.172C1752.2 923.333 1388.8 1003.79 1266.81 1084.34C1114.31 1185.02 886.936 1221.63 726.223 1232.66C565.509 1243.7 60.5412 1233.43 -48.0529 1136.44L-24.0824 1354.31C172.807 1310.76 597.488 1216.14 721.099 1186.1C882.246 1139.22 1285.31 1058.63 1608.4 1111.34C1717.67 1134.91 1943.16 1185.58 1970.98 1199.71" stroke="white" stroke-width="2"/>
<path d="M-6.80807 1337.06C160.716 1360.54 531.035 1397.92 672.115 1359.62C848.465 1311.75 1075.87 1348.18 1231.96 1388.03C1388.05 1427.87 1864.4 1595.74 1937.17 1721.86L1982.62 1507.44C1782 1487.15 1349.04 1444.03 1222.24 1433.85C1054.52 1427.92 646.489 1378.24 356.152 1227.01C259.759 1170.41 61.4735 1051.68 39.4819 1029.56" stroke="white" stroke-width="2"/>
<path d="M-9.64425 1585.94C156.452 1618 524.359 1674.37 667.221 1643.38C845.799 1604.64 1071.03 1652.72 1224.86 1700.53C1378.7 1748.34 1845.79 1940.48 1911.98 2070.17L1968.39 1858.38C1769.08 1827.8 1338.92 1762.48 1212.8 1745.8C1045.61 1731.25 640.672 1660.66 358.494 1494.7C265.138 1433.22 73.2192 1304.45 52.394 1281.23" stroke="white" stroke-width="2"/>
<path d="M1548.51 2123.78C1392.67 2057.97 1044.46 1926.52 898.272 1927.21C715.542 1928.08 505.178 1834.34 364.606 1755.66C224.033 1676.98 -193.062 1392.15 -230.909 1251.55L-330.024 1447.04C-141.382 1518.29 265.88 1671.4 385.79 1713.88C546.334 1762.78 927.828 1915.82 1169.45 2136.69C1248.03 2216.19 1409.07 2381.96 1424.63 2409" stroke="white" stroke-width="2"/>
</g>
</g>
<g opacity="0.15">
<mask id="mask2_43_548" style="mask-type:alpha" maskUnits="userSpaceOnUse" x="0" y="0" width="1920" height="1000">
<rect width="1920" height="1000" fill="url(#paint2_linear_43_548)"/>
</mask>
<g mask="url(#mask2_43_548)">
<path d="M1.34985 1106.83C167.801 1076.67 531.201 996.21 653.195 915.663C805.687 814.98 1033.06 778.374 1193.78 767.336C1354.49 756.298 1859.46 766.566 1968.05 863.556L1944.08 645.69C1747.19 689.243 1322.51 783.86 1198.9 813.902C1037.75 860.785 634.688 941.372 311.597 888.657C202.328 865.087 -23.1635 814.418 -50.976 800.295" stroke="white" stroke-width="2"/>
<path d="M1926.81 662.94C1759.28 639.462 1388.96 602.082 1247.88 640.379C1071.53 688.249 844.13 651.816 688.042 611.975C531.954 572.133 55.5964 404.261 -17.1661 278.145L-62.6214 492.56C138.004 512.849 570.955 555.971 697.757 566.146C865.48 572.081 1273.51 621.758 1563.85 772.991C1660.24 829.591 1858.53 948.32 1880.52 970.442" stroke="white" stroke-width="2"/>
<path d="M1929.64 414.056C1763.55 381.997 1395.64 325.627 1252.78 356.62C1074.2 395.36 848.97 347.284 695.137 299.47C541.304 251.657 74.2066 59.516 8.02439 -70.1749L-48.3944 141.62C150.923 172.197 581.084 237.521 707.195 254.202C874.392 268.752 1279.33 339.341 1561.51 505.302C1654.86 566.782 1846.78 695.549 1867.61 718.772" stroke="white" stroke-width="2"/>
<path d="M371.49 -123.775C527.326 -57.9671 875.544 73.4763 1021.73 72.7855C1204.46 71.922 1414.82 165.663 1555.39 244.34C1695.97 323.017 2113.06 607.85 2150.91 748.447L2250.02 552.957C2061.38 481.709 1654.12 328.596 1534.21 286.123C1373.67 237.216 992.172 84.1829 750.548 -136.69C671.971 -216.195 510.93 -381.963 495.373 -409" stroke="white" stroke-width="2"/>
</g>
</g>
<defs>
<linearGradient id="paint0_linear_43_548" x1="1920" y1="3500" x2="3840" y2="3500" gradientUnits="userSpaceOnUse">
<stop stop-opacity="0.2"/>
<stop offset="0.34375" stop-opacity="0.8"/>
<stop offset="1" stop-opacity="0.2"/>
</linearGradient>
<linearGradient id="paint1_linear_43_548" x1="1920" y1="2500" x2="3840" y2="2500" gradientUnits="userSpaceOnUse">
<stop stop-opacity="0.2"/>
<stop offset="0.34375" stop-opacity="0.8"/>
<stop offset="1" stop-opacity="0.2"/>
</linearGradient>
<linearGradient id="paint2_linear_43_548" x1="0" y1="500" x2="1920" y2="500" gradientUnits="userSpaceOnUse">
<stop stop-opacity="0.2"/>
<stop offset="0.34375" stop-opacity="0.8"/>
<stop offset="1" stop-opacity="0.2"/>
</linearGradient>
</defs>
</svg>
