<svg width="29" height="33" viewBox="0 0 29 33" fill="none" xmlns="http://www.w3.org/2000/svg">
<path d="M6.50098 5.01492H25.1586C25.2544 5.01492 25.3493 5.03379 25.4378 5.07045C25.5263 5.10711 25.6067 5.16085 25.6745 5.22859C25.7422 5.29633 25.7959 5.37675 25.8326 5.46525C25.8693 5.55376 25.8881 5.64862 25.8881 5.74442V18.1158C25.8881 18.2115 25.8692 18.3062 25.8325 18.3945C25.7958 18.4829 25.7421 18.5631 25.6743 18.6306C25.6065 18.6981 25.5261 18.7515 25.4376 18.7879C25.3491 18.8242 25.2543 18.8427 25.1586 18.8423H23.4865L20.8447 21.4991V19.0134H19.4308" stroke="#FF9E2B" stroke-width="2" stroke-miterlimit="10"/>
<path d="M8.17295 19.3016H3.13253C2.87747 19.3008 2.63313 19.1989 2.45306 19.0183C2.27299 18.8377 2.17187 18.593 2.17188 18.338V5.97557C2.17267 5.72104 2.27413 5.47715 2.45412 5.29717C2.6341 5.11718 2.87799 5.01571 3.13253 5.01492H5.06884" stroke="#FF9E2B" stroke-width="2" stroke-miterlimit="10"/>
<path d="M14.0602 15.393C15.2391 15.393 16.1947 14.4373 16.1947 13.2585C16.1947 12.0797 15.2391 11.1241 14.0602 11.1241C12.8814 11.1241 11.9258 12.0797 11.9258 13.2585C11.9258 14.4373 12.8814 15.393 14.0602 15.393Z" stroke="#FF9E2B" stroke-width="2" stroke-miterlimit="10"/>
<path d="M23.8262 28.1997H26.0867" stroke="#FF9E2B" stroke-width="2" stroke-miterlimit="10"/>
<path d="M10.3314 28.1997H2.17188" stroke="#FF9E2B" stroke-width="2" stroke-miterlimit="10"/>
<path d="M22.3703 28.1997H15.931V25.2847H18.4227V19.0795C18.3534 18.7342 18.2147 18.4067 18.0149 18.1166C17.8152 17.8266 17.5587 17.5802 17.2609 17.3923C16.846 17.1605 16.376 17.0454 15.901 17.0591H12.0463C11.7052 17.0512 11.3668 17.1221 11.0575 17.2664C10.7482 17.4106 10.4764 17.6242 10.2631 17.8907C9.96536 18.304 9.79052 18.7932 9.75879 19.3016V25.3657H11.9233V28.1937H15.931" stroke="#FF9E2B" stroke-width="2" stroke-miterlimit="10"/>
<path d="M15.9307 25.2847V23.8917" stroke="#FF9E2B" stroke-width="2" stroke-miterlimit="10"/>
<path d="M11.9229 25.3717V23.8917" stroke="#FF9E2B" stroke-width="2" stroke-miterlimit="10"/>
<path d="M13.9795 25.81V28.1996" stroke="#FF9E2B" stroke-width="2" stroke-miterlimit="10"/>
<path d="M11.3018 8.14304H12.2594" stroke="#FF9E2B" stroke-width="2" stroke-miterlimit="10"/>
<path d="M13.502 8.14304H14.4596" stroke="#FF9E2B" stroke-width="2" stroke-miterlimit="10"/>
<path d="M15.7021 8.14304H16.6598" stroke="#FF9E2B" stroke-width="2" stroke-miterlimit="10"/>
<path d="M14.5377 19.1155H13.5801" stroke="#FF9E2B" stroke-width="2" stroke-miterlimit="10"/>
</svg>
