<svg width="28" height="33" viewBox="0 0 28 33" fill="none" xmlns="http://www.w3.org/2000/svg">
<path d="M12.6714 5.29416H3.12793C2.86997 5.29416 2.62257 5.39563 2.44016 5.57625C2.25775 5.75687 2.15527 6.00184 2.15527 6.25728V22.9246C2.15527 23.1801 2.25775 23.425 2.44016 23.6057C2.62257 23.7863 2.86997 23.8877 3.12793 23.8877H24.8717C25.1297 23.8877 25.3771 23.7863 25.5595 23.6057C25.7419 23.425 25.8443 23.1801 25.8443 22.9246V17.9871" stroke="#FF9E2B" stroke-width="2" stroke-miterlimit="10"/>
<path d="M17.4661 15.4753V17.137L19.5135 15.5615H24.8721C25.1301 15.5615 25.3775 15.46 25.5599 15.2794C25.7423 15.0988 25.8448 14.8538 25.8448 14.5984V6.25728C25.8448 6.00185 25.7423 5.75687 25.5599 5.57625C25.3775 5.39563 25.1301 5.29416 24.8721 5.29416H15.2656C15.0077 5.29416 14.7603 5.39563 14.5779 5.57625C14.3954 5.75687 14.293 6.00185 14.293 6.25728V14.5806C14.293 14.836 14.3954 15.081 14.5779 15.2616C14.7603 15.4422 15.0077 15.5437 15.2656 15.5437H16.0251" stroke="#FF9E2B" stroke-width="2" stroke-miterlimit="10"/>
<path d="M3.94434 19.3664H25.8442" stroke="#FF9E2B" stroke-width="2" stroke-miterlimit="10"/>
<path d="M9.33301 27.6065H25.8442" stroke="#FF9E2B" stroke-width="2" stroke-miterlimit="10"/>
<path d="M2.15527 27.6065H7.29776" stroke="#FF9E2B" stroke-width="2" stroke-miterlimit="10"/>
<path d="M11.0088 23.8877V27.6065" stroke="#FF9E2B" stroke-width="2" stroke-miterlimit="10"/>
<path d="M16.9014 25.0887V27.6065" stroke="#FF9E2B" stroke-width="2" stroke-miterlimit="10"/>
<path d="M8.29475 11.923C9.43212 11.923 10.3541 11.0101 10.3541 9.88384C10.3541 8.75762 9.43212 7.84464 8.29475 7.84464C7.15737 7.84464 6.23535 8.75762 6.23535 9.88384C6.23535 11.0101 7.15737 11.923 8.29475 11.923Z" stroke="#FF9E2B" stroke-width="2" stroke-miterlimit="10"/>
<path d="M7.29776 11.9231L5.72469 13.2013C5.26765 13.5729 4.89949 14.0403 4.64669 14.5697C4.3939 15.0991 4.26275 15.6774 4.2627 16.263C4.26349 16.616 4.40544 16.9543 4.65749 17.2038C4.90954 17.4534 5.25116 17.594 5.60761 17.5948H11.4075C11.5846 17.5952 11.7599 17.561 11.9236 17.4943C12.0873 17.4276 12.2361 17.3296 12.3615 17.2059C12.487 17.0823 12.5866 16.9354 12.6547 16.7736C12.7228 16.6118 12.7581 16.4383 12.7585 16.263C12.7591 15.6823 12.62 15.1098 12.3527 14.5928C12.0854 14.0759 11.6976 13.6294 11.2214 13.2904L9.07196 11.7655" stroke="#FF9E2B" stroke-width="2" stroke-miterlimit="10"/>
<path d="M18.9544 10.0563H18.4141V10.4635H18.9544V10.0563Z" fill="#FF9E2B"/>
<path d="M20.3421 10.0563H19.8018V10.4635H20.3421V10.0563Z" fill="#FF9E2B"/>
<path d="M21.7288 10.0563H21.1885V10.4635H21.7288V10.0563Z" fill="#FF9E2B"/>
<path d="M14.5059 20.9627H13.4912V21.7296H14.5059V20.9627Z" fill="#FF9E2B"/>
</svg>
