<svg width="131" height="81" viewBox="0 0 131 81" fill="none" xmlns="http://www.w3.org/2000/svg">
<path d="M18.2257 63.2007L109.031 76.0227C114.576 76.8057 119.684 72.8824 120.357 67.3226L125.425 25.454C126.138 19.5578 121.586 14.3427 115.648 14.2534L17.1611 12.772C11.2425 12.683 6.54234 17.726 7.04716 23.6237L9.6603 54.1518C10.0578 58.7956 13.6107 62.5491 18.2257 63.2007Z" stroke="white" stroke-opacity="0.2" stroke-width="0.5"/>
<path d="M112.017 19.4678L20.329 17.6509C14.7297 17.54 10.1309 22.0486 10.1309 27.6489V69.8232C10.1309 75.7624 15.2769 80.3927 21.1831 79.7677L119.134 69.4031C125.02 68.7803 129.08 63.2089 127.871 57.4147L121.608 27.4218C120.655 22.8594 116.677 19.5601 112.017 19.4678Z" fill="white" fill-opacity="0.2"/>
<path d="M62.501 36.0149H81.1586C81.2544 36.0149 81.3493 36.0338 81.4378 36.0705C81.5263 36.1071 81.6067 36.1608 81.6745 36.2286C81.7422 36.2963 81.7959 36.3767 81.8326 36.4653C81.8693 36.5538 81.8881 36.6486 81.8881 36.7444V49.1158C81.8881 49.2115 81.8692 49.3062 81.8325 49.3945C81.7958 49.4829 81.7421 49.5631 81.6743 49.6306C81.6065 49.6981 81.5261 49.7515 81.4376 49.7879C81.3491 49.8242 81.2543 49.8427 81.1586 49.8423H79.4865L76.8447 52.4991V50.0134H75.4308" stroke="#FF9E2B" stroke-width="2" stroke-miterlimit="10"/>
<path d="M64.1729 50.3016H59.1325C58.8775 50.3008 58.6331 50.1989 58.4531 50.0183C58.273 49.8377 58.1719 49.593 58.1719 49.338V36.9756C58.1727 36.721 58.2741 36.4772 58.4541 36.2972C58.6341 36.1172 58.878 36.0157 59.1325 36.0149H61.0688" stroke="#FF9E2B" stroke-width="2" stroke-miterlimit="10"/>
<path d="M70.0602 46.393C71.2391 46.393 72.1947 45.4373 72.1947 44.2585C72.1947 43.0797 71.2391 42.1241 70.0602 42.1241C68.8814 42.1241 67.9258 43.0797 67.9258 44.2585C67.9258 45.4373 68.8814 46.393 70.0602 46.393Z" stroke="#FF9E2B" stroke-width="2" stroke-miterlimit="10"/>
<path d="M79.8262 59.1997H82.0867" stroke="#FF9E2B" stroke-width="2" stroke-miterlimit="10"/>
<path d="M66.3314 59.1997H58.1719" stroke="#FF9E2B" stroke-width="2" stroke-miterlimit="10"/>
<path d="M78.3703 59.1997H71.931V56.2847H74.4227V50.0795C74.3534 49.7342 74.2147 49.4067 74.0149 49.1166C73.8152 48.8266 73.5587 48.5802 73.2609 48.3923C72.846 48.1605 72.376 48.0454 71.901 48.0591H68.0463C67.7052 48.0512 67.3668 48.1221 67.0575 48.2664C66.7482 48.4106 66.4764 48.6242 66.2631 48.8907C65.9654 49.304 65.7905 49.7932 65.7588 50.3016V56.3657H67.9233V59.1937H71.931" stroke="#FF9E2B" stroke-width="2" stroke-miterlimit="10"/>
<path d="M71.9307 56.2847V54.8917" stroke="#FF9E2B" stroke-width="2" stroke-miterlimit="10"/>
<path d="M67.9229 56.3717V54.8917" stroke="#FF9E2B" stroke-width="2" stroke-miterlimit="10"/>
<path d="M69.9795 56.81V59.1996" stroke="#FF9E2B" stroke-width="2" stroke-miterlimit="10"/>
<path d="M67.3018 39.143H68.2594" stroke="#FF9E2B" stroke-width="2" stroke-miterlimit="10"/>
<path d="M69.502 39.143H70.4596" stroke="#FF9E2B" stroke-width="2" stroke-miterlimit="10"/>
<path d="M71.7021 39.143H72.6598" stroke="#FF9E2B" stroke-width="2" stroke-miterlimit="10"/>
<path d="M70.5377 50.1155H69.5801" stroke="#FF9E2B" stroke-width="2" stroke-miterlimit="10"/>
</svg>
