<svg width="24" height="17" viewBox="0 0 24 17" fill="none" xmlns="http://www.w3.org/2000/svg">
<path fill-rule="evenodd" clip-rule="evenodd" d="M12 0C9.92893 0 8.25 1.67893 8.25 3.75C8.25 5.82107 9.92893 7.5 12 7.5C14.0711 7.5 15.75 5.82107 15.75 3.75C15.75 1.67893 14.0711 0 12 0ZM9.75 3.75C9.75 2.50736 10.7574 1.5 12 1.5C13.2426 1.5 14.25 2.50736 14.25 3.75C14.25 4.99264 13.2426 6 12 6C10.7574 6 9.75 4.99264 9.75 3.75Z" fill="white" fill-opacity="0.7"/>
<path fill-rule="evenodd" clip-rule="evenodd" d="M9 9C6.92893 9 5.25 10.6789 5.25 12.75C5.25 14.8211 6.92893 16.5 9 16.5H15C17.0711 16.5 18.75 14.8211 18.75 12.75C18.75 10.6789 17.0711 9 15 9H9ZM6.75 12.75C6.75 11.5074 7.75736 10.5 9 10.5H15C16.2426 10.5 17.25 11.5074 17.25 12.75C17.25 13.9926 16.2426 15 15 15H9C7.75736 15 6.75 13.9926 6.75 12.75Z" fill="white" fill-opacity="0.7"/>
<path d="M7.75214 6.38865C7.59441 6.13527 7.29846 6 7 6C5.75736 6 4.75 4.99264 4.75 3.75C4.75 2.50736 5.75736 1.5 7 1.5C7.29846 1.5 7.59441 1.36473 7.75214 1.11135C7.75912 1.10014 7.76613 1.08896 7.7732 1.07782C8.0358 0.663308 7.90275 0.0764006 7.415 0.0227032C7.27873 0.00770099 7.14027 0 7 0C4.92893 0 3.25 1.67893 3.25 3.75C3.25 5.82107 4.92893 7.5 7 7.5C7.14027 7.5 7.27873 7.4923 7.415 7.4773C7.90275 7.4236 8.0358 6.83669 7.7732 6.42218C7.76614 6.41104 7.75912 6.39986 7.75214 6.38865Z" fill="white" fill-opacity="0.7"/>
<path d="M4.70829 14.3169C4.59477 14.1275 4.39439 14 4.17359 14H4C2.75736 14 1.75 12.9926 1.75 11.75C1.75 10.5074 2.75736 9.5 4 9.5H4.17359C4.39439 9.5 4.59477 9.37252 4.70829 9.18313C4.98539 8.72082 4.68468 8 4.14569 8H4C1.92893 8 0.25 9.67893 0.25 11.75C0.25 13.8211 1.92893 15.5 4 15.5H4.14569C4.68469 15.5 4.98539 14.7792 4.70829 14.3169Z" fill="white" fill-opacity="0.7"/>
<path d="M16.2268 6.42218C15.9642 6.83669 16.0973 7.4236 16.585 7.4773C16.7213 7.4923 16.8597 7.5 17 7.5C19.0711 7.5 20.75 5.82107 20.75 3.75C20.75 1.67893 19.0711 0 17 0C16.8597 0 16.7213 0.00770104 16.585 0.0227034C16.0973 0.0764008 15.9642 0.663307 16.2268 1.07782C16.2339 1.08896 16.2409 1.10014 16.2479 1.11134C16.4056 1.36472 16.7015 1.5 17 1.5C18.2426 1.5 19.25 2.50736 19.25 3.75C19.25 4.99264 18.2426 6 17 6C16.7015 6 16.4056 6.13527 16.2479 6.38865C16.2409 6.39986 16.2339 6.41104 16.2268 6.42218Z" fill="white" fill-opacity="0.7"/>
<path d="M19.2917 14.3169C19.0146 14.7792 19.3153 15.5 19.8543 15.5H20C22.0711 15.5 23.75 13.8211 23.75 11.75C23.75 9.67893 22.0711 8 20 8H19.8543C19.3153 8 19.0146 8.72082 19.2917 9.18313C19.4052 9.37252 19.6056 9.5 19.8264 9.5H20C21.2426 9.5 22.25 10.5074 22.25 11.75C22.25 12.9926 21.2426 14 20 14H19.8264C19.6056 14 19.4052 14.1275 19.2917 14.3169Z" fill="white" fill-opacity="0.7"/>
</svg>
