<svg width="20" height="21" viewBox="0 0 20 21" fill="none" xmlns="http://www.w3.org/2000/svg">
<path d="M14 7.75L10 7.75C9.58579 7.75 9.25 7.41421 9.25 7C9.25 6.58579 9.58579 6.25 10 6.25L14 6.25C14.4142 6.25 14.75 6.58579 14.75 7C14.75 7.41421 14.4142 7.75 14 7.75Z" fill="white" fill-opacity="0.7"/>
<path d="M5.25 11C5.25 10.5858 5.58579 10.25 6 10.25H14C14.4142 10.25 14.75 10.5858 14.75 11C14.75 11.4142 14.4142 11.75 14 11.75H6C5.58579 11.75 5.25 11.4142 5.25 11Z" fill="white" fill-opacity="0.7"/>
<path fill-rule="evenodd" clip-rule="evenodd" d="M8.96644 0.25H11.0336C12.4053 0.249995 13.4807 0.249992 14.3451 0.320612C15.2252 0.392522 15.9523 0.541379 16.6104 0.876713C17.6924 1.42798 18.572 2.30762 19.1233 3.38955C19.4586 4.04769 19.6075 4.77479 19.6794 5.65494C19.75 6.51928 19.75 7.59471 19.75 8.96642V11.7232C19.75 11.9797 19.75 12.1358 19.7436 12.2719C19.6033 15.2338 17.2338 17.6033 14.2719 17.7436C14.1358 17.75 13.9639 17.75 13.6788 17.75H13.6504L13.5751 17.7501C12.7079 17.7556 11.8632 18.0264 11.1543 18.5259L11.1051 18.5609L8.49441 20.4257C6.9899 21.5003 5.01288 19.9484 5.69954 18.2317C5.79183 18.001 5.62191 17.75 5.37341 17.75H4.77166C2.27441 17.75 0.25 15.7256 0.25 13.2283L0.25 8.96644C0.249995 7.59472 0.249992 6.51929 0.320612 5.65494C0.392522 4.77479 0.541379 4.04769 0.876713 3.38955C1.42798 2.30762 2.30762 1.42798 3.38955 0.876713C4.04769 0.541379 4.77479 0.392522 5.65494 0.320612C6.51929 0.249992 7.59472 0.249995 8.96644 0.25ZM5.77708 1.81563C4.9897 1.87996 4.48197 2.00359 4.07054 2.21322C3.27085 2.62068 2.62068 3.27085 2.21322 4.07054C2.00359 4.48197 1.87996 4.9897 1.81563 5.77708C1.75058 6.57322 1.75 7.58749 1.75 9V13.2283C1.75 14.8972 3.10284 16.25 4.77166 16.25H5.37341C6.68311 16.25 7.57867 17.5728 7.09226 18.7888C6.96197 19.1145 7.33709 19.409 7.62255 19.2051L10.2333 17.3403L10.2902 17.2997C11.2493 16.6239 12.3922 16.2576 13.5655 16.2501L13.6504 16.25C13.9721 16.25 14.1053 16.2498 14.201 16.2452C16.3902 16.1416 18.1416 14.3902 18.2452 12.201C18.2498 12.105 18.25 11.9871 18.25 11.6988V9C18.25 7.58749 18.2494 6.57322 18.1844 5.77708C18.12 4.9897 17.9964 4.48197 17.7868 4.07054C17.3793 3.27085 16.7291 2.62068 15.9295 2.21322C15.518 2.00359 15.0103 1.87996 14.2229 1.81563C13.4268 1.75058 12.4125 1.75 11 1.75H9C7.58749 1.75 6.57322 1.75058 5.77708 1.81563Z" fill="white" fill-opacity="0.7"/>
</svg>
