<svg width="131" height="81" viewBox="0 0 131 81" fill="none" xmlns="http://www.w3.org/2000/svg">
<path d="M19.0948 63.2007L109.9 76.0227C115.445 76.8057 120.553 72.8824 121.226 67.3226L126.294 25.454C127.008 19.5578 122.455 14.3427 116.517 14.2534L18.0303 12.772C12.1117 12.683 7.41148 17.726 7.9163 23.6237L10.5294 54.1518C10.9269 58.7956 14.4798 62.5491 19.0948 63.2007Z" stroke="white" stroke-opacity="0.2" stroke-width="0.5"/>
<path d="M112.886 19.4678L21.1981 17.6509C15.5988 17.54 11 22.0486 11 27.6489V69.8232C11 75.7624 16.1461 80.3927 22.0523 79.7677L120.003 69.4031C125.889 68.7803 129.95 63.2089 128.74 57.4147L122.477 27.4218C121.524 22.8594 117.546 19.5601 112.886 19.4678Z" fill="white" fill-opacity="0.2"/>
<path d="M69.6714 35.2942H60.1279C59.87 35.2942 59.6226 35.3956 59.4402 35.5763C59.2577 35.7569 59.1553 36.0018 59.1553 36.2573V52.9246C59.1553 53.1801 59.2577 53.425 59.4402 53.6057C59.6226 53.7863 59.87 53.8877 60.1279 53.8877H81.8717C82.1297 53.8877 82.3771 53.7863 82.5595 53.6057C82.7419 53.425 82.8443 53.1801 82.8443 52.9246V47.9871" stroke="#FF9E2B" stroke-width="2" stroke-miterlimit="10"/>
<path d="M74.4661 45.4753V47.137L76.5135 45.5615H81.8721C82.1301 45.5615 82.3775 45.46 82.5599 45.2794C82.7423 45.0988 82.8448 44.8538 82.8448 44.5984V36.2573C82.8448 36.0018 82.7423 35.7569 82.5599 35.5763C82.3775 35.3956 82.1301 35.2942 81.8721 35.2942H72.2656C72.0077 35.2942 71.7603 35.3956 71.5779 35.5763C71.3954 35.7569 71.293 36.0018 71.293 36.2573V44.5806C71.293 44.836 71.3954 45.081 71.5779 45.2616C71.7603 45.4422 72.0077 45.5437 72.2656 45.5437H73.0251" stroke="#FF9E2B" stroke-width="2" stroke-miterlimit="10"/>
<path d="M60.9443 49.3664H82.8442" stroke="#FF9E2B" stroke-width="2" stroke-miterlimit="10"/>
<path d="M66.333 57.6065H82.8442" stroke="#FF9E2B" stroke-width="2" stroke-miterlimit="10"/>
<path d="M59.1553 57.6065H64.2978" stroke="#FF9E2B" stroke-width="2" stroke-miterlimit="10"/>
<path d="M68.0088 53.8877V57.6065" stroke="#FF9E2B" stroke-width="2" stroke-miterlimit="10"/>
<path d="M73.9014 55.0887V57.6065" stroke="#FF9E2B" stroke-width="2" stroke-miterlimit="10"/>
<path d="M65.2947 41.923C66.4321 41.923 67.3541 41.0101 67.3541 39.8838C67.3541 38.7576 66.4321 37.8446 65.2947 37.8446C64.1574 37.8446 63.2354 38.7576 63.2354 39.8838C63.2354 41.0101 64.1574 41.923 65.2947 41.923Z" stroke="#FF9E2B" stroke-width="2" stroke-miterlimit="10"/>
<path d="M64.2978 41.9231L62.7247 43.2013C62.2676 43.5729 61.8995 44.0403 61.6467 44.5697C61.3939 45.0991 61.2628 45.6774 61.2627 46.263C61.2635 46.616 61.4054 46.9543 61.6575 47.2038C61.9095 47.4534 62.2512 47.594 62.6076 47.5948H68.4075C68.5846 47.5952 68.7599 47.561 68.9236 47.4943C69.0873 47.4276 69.2361 47.3296 69.3615 47.2059C69.487 47.0823 69.5866 46.9354 69.6547 46.7736C69.7228 46.6118 69.7581 46.4383 69.7585 46.263C69.7591 45.6823 69.62 45.1098 69.3527 44.5928C69.0854 44.0759 68.6976 43.6294 68.2214 43.2904L66.072 41.7655" stroke="#FF9E2B" stroke-width="2" stroke-miterlimit="10"/>
<path d="M75.9544 40.0563H75.4141V40.4635H75.9544V40.0563Z" fill="#FF9E2B"/>
<path d="M77.3421 40.0563H76.8018V40.4635H77.3421V40.0563Z" fill="#FF9E2B"/>
<path d="M78.7288 40.0563H78.1885V40.4635H78.7288V40.0563Z" fill="#FF9E2B"/>
<path d="M71.5059 50.9627H70.4912V51.7296H71.5059V50.9627Z" fill="#FF9E2B"/>
</svg>
