<svg width="24" height="23" viewBox="0 0 24 23" fill="none" xmlns="http://www.w3.org/2000/svg">
<path fill-rule="evenodd" clip-rule="evenodd" d="M12.2108 0.253865C12.0703 0.248712 11.9297 0.248712 11.7892 0.253865C10.8618 0.287886 10.0268 0.603234 9.11115 1.12818C8.21888 1.63974 7.19165 2.38608 5.88826 3.33305L5.81741 3.38453C4.51402 4.33149 3.48676 5.07783 2.72451 5.76835C1.94232 6.47693 1.38435 7.17368 1.06542 8.04515C1.01711 8.17717 0.973653 8.31091 0.935143 8.44611C0.680923 9.33861 0.722785 10.2303 0.939096 11.2633C1.14989 12.27 1.54227 13.4775 2.04013 15.0098L3.77469 20.3482C4.14855 21.4988 5.2208 22.2779 6.43065 22.2779C7.97298 22.2779 9.2233 21.0276 9.2233 19.4852V16.7363C9.2233 16.092 9.74561 15.5697 10.3899 15.5697H13.6101C14.2544 15.5697 14.7767 16.092 14.7767 16.7363V19.4852C14.7767 21.0276 16.027 22.2779 17.5694 22.2779C18.7792 22.2779 19.8515 21.4988 20.2253 20.3482L21.9599 15.0097C22.4578 13.4775 22.8501 12.2699 23.0609 11.2633C23.2772 10.2303 23.3191 9.33861 23.0649 8.44611C23.0264 8.31091 22.9829 8.17717 22.9346 8.04515C22.6157 7.17368 22.0577 6.47693 21.2755 5.76835C20.5132 5.07782 19.486 4.33149 18.1826 3.38452L18.1117 3.33303C16.8084 2.38607 15.7811 1.63973 14.8889 1.12818C13.9733 0.603234 13.1382 0.287886 12.2108 0.253865ZM11.8442 1.75286C11.948 1.74905 12.052 1.74905 12.1558 1.75286C12.7512 1.7747 13.3443 1.97167 14.1428 2.42948C14.9566 2.89603 15.9189 3.59396 17.2655 4.57232C18.6121 5.55068 19.5733 6.25026 20.2684 6.88002C20.9506 7.49798 21.3212 8.00112 21.526 8.56067C21.5617 8.65824 21.5938 8.75709 21.6222 8.85703C21.7855 9.43007 21.7814 10.055 21.5928 10.9558C21.4005 11.874 21.0341 13.0049 20.5198 14.5879L18.7987 19.8847C18.6257 20.4173 18.1294 20.7779 17.5694 20.7779C16.8555 20.7779 16.2767 20.1991 16.2767 19.4852V16.7363C16.2767 15.2636 15.0828 14.0697 13.6101 14.0697H10.3899C8.91719 14.0697 7.7233 15.2636 7.7233 16.7363V19.4852C7.7233 20.1991 7.14456 20.7779 6.43065 20.7779C5.87064 20.7779 5.37433 20.4173 5.20127 19.8847L3.48025 14.5879C2.9659 13.0049 2.59951 11.874 2.40725 10.9558C2.21861 10.055 2.21454 9.43007 2.37776 8.85703C2.40623 8.7571 2.43834 8.65824 2.47405 8.56067C2.67883 8.00112 3.04942 7.49798 3.73157 6.88002C4.42676 6.25026 5.38791 5.55068 6.73451 4.57232C8.0811 3.59396 9.04345 2.89603 9.85722 2.42948C10.6557 1.97167 11.2488 1.7747 11.8442 1.75286Z" fill="white" fill-opacity="0.7"/>
</svg>
