<svg width="22" height="21" viewBox="0 0 22 21" fill="none" xmlns="http://www.w3.org/2000/svg">
<path d="M5.29367 2.96556C7.96048 1.028 9.29389 0.0592252 10.8167 0.00336104C10.9389 -0.00112035 11.0611 -0.00112035 11.1833 0.00336104C12.7061 0.0592252 14.0395 1.028 16.7063 2.96556C19.3732 4.90311 20.7066 5.87189 21.2303 7.30291C21.2723 7.41771 21.3101 7.534 21.3436 7.65157C21.761 9.11711 21.2517 10.6846 20.2331 13.8197L18.512 19.1164C18.2386 19.958 17.4543 20.5279 16.5694 20.5279C15.4412 20.5279 14.5267 19.6133 14.5267 18.4852V15.7363C14.5267 14.6778 13.6686 13.8197 12.6101 13.8197H9.38993C8.3314 13.8197 7.47329 14.6778 7.47329 15.7363V18.4852C7.47329 19.6133 6.55877 20.5279 5.43065 20.5279C4.54572 20.5279 3.76144 19.958 3.48798 19.1164L1.76696 13.8197C0.748322 10.6846 0.239006 9.11711 0.656451 7.65157C0.689938 7.534 0.727726 7.41771 0.769737 7.30291C1.29344 5.87189 2.62685 4.90311 5.29367 2.96556Z" fill="white"/>
</svg>
