<svg width="16" height="16" viewBox="0 0 16 16" fill="none" xmlns="http://www.w3.org/2000/svg">
<path d="M0 3C0 2.06812 0 1.60218 0.152241 1.23463C0.355229 0.744577 0.744577 0.355229 1.23463 0.152241C1.60218 0 2.06812 0 3 0C3.93188 0 4.39782 0 4.76537 0.152241C5.25542 0.355229 5.64477 0.744577 5.84776 1.23463C6 1.60218 6 2.06812 6 3C6 3.93188 6 4.39782 5.84776 4.76537C5.64477 5.25542 5.25542 5.64477 4.76537 5.84776C4.39782 6 3.93188 6 3 6C2.06812 6 1.60218 6 1.23463 5.84776C0.744577 5.64477 0.355229 5.25542 0.152241 4.76537C0 4.39782 0 3.93188 0 3Z" fill="white"/>
<path d="M10 3C10 2.06812 10 1.60218 10.1522 1.23463C10.3552 0.744577 10.7446 0.355229 11.2346 0.152241C11.6022 0 12.0681 0 13 0C13.9319 0 14.3978 0 14.7654 0.152241C15.2554 0.355229 15.6448 0.744577 15.8478 1.23463C16 1.60218 16 2.06812 16 3C16 3.93188 16 4.39782 15.8478 4.76537C15.6448 5.25542 15.2554 5.64477 14.7654 5.84776C14.3978 6 13.9319 6 13 6C12.0681 6 11.6022 6 11.2346 5.84776C10.7446 5.64477 10.3552 5.25542 10.1522 4.76537C10 4.39782 10 3.93188 10 3Z" fill="white"/>
<path d="M0 13C0 12.0681 0 11.6022 0.152241 11.2346C0.355229 10.7446 0.744577 10.3552 1.23463 10.1522C1.60218 10 2.06812 10 3 10C3.93188 10 4.39782 10 4.76537 10.1522C5.25542 10.3552 5.64477 10.7446 5.84776 11.2346C6 11.6022 6 12.0681 6 13C6 13.9319 6 14.3978 5.84776 14.7654C5.64477 15.2554 5.25542 15.6448 4.76537 15.8478C4.39782 16 3.93188 16 3 16C2.06812 16 1.60218 16 1.23463 15.8478C0.744577 15.6448 0.355229 15.2554 0.152241 14.7654C0 14.3978 0 13.9319 0 13Z" fill="white"/>
<path d="M10 13C10 12.0681 10 11.6022 10.1522 11.2346C10.3552 10.7446 10.7446 10.3552 11.2346 10.1522C11.6022 10 12.0681 10 13 10C13.9319 10 14.3978 10 14.7654 10.1522C15.2554 10.3552 15.6448 10.7446 15.8478 11.2346C16 11.6022 16 12.0681 16 13C16 13.9319 16 14.3978 15.8478 14.7654C15.6448 15.2554 15.2554 15.6448 14.7654 15.8478C14.3978 16 13.9319 16 13 16C12.0681 16 11.6022 16 11.2346 15.8478C10.7446 15.6448 10.3552 15.2554 10.1522 14.7654C10 14.3978 10 13.9319 10 13Z" fill="white"/>
</svg>
