<svg width="70" height="70" viewBox="0 0 70 70" fill="none" xmlns="http://www.w3.org/2000/svg">
<g clip-path="url(#clip0_46_2368)">
<path d="M60.396 51.3333C60.7665 49.3663 60.757 47.3467 60.368 45.3833L65.7113 32.4881C65.7119 32.4796 65.7119 32.471 65.7113 32.4625C66.5772 30.0919 67.8462 27.8887 69.4622 25.9501C69.8643 25.5254 70.026 24.9271 69.8927 24.3576L67.7017 14.896C67.6756 14.797 67.6364 14.7021 67.585 14.6136C67.5757 14.5961 67.5722 14.5751 67.5628 14.5588C67.5535 14.5425 67.5127 14.5028 67.4893 14.4725C67.4416 14.4026 67.3864 14.338 67.3248 14.28C67.2843 14.2514 67.2418 14.2257 67.1977 14.203C67.1408 14.1611 67.0803 14.1244 67.0168 14.0933C66.9289 14.0601 66.8372 14.0377 66.7438 14.0268C66.717 14.0268 66.6937 14.0093 66.6668 14.007C66.4432 13.992 66.22 14.0419 66.024 14.1505C66.0065 14.1598 65.9855 14.1633 65.968 14.1738H65.9563L57.7185 19.3153C57.2196 19.6242 56.91 20.1637 56.8948 20.7503C56.666 23.2693 56.0025 25.7296 54.9337 28.0221V28.035L52.2632 34.4901C50.9525 33.7934 49.5493 33.2866 48.0958 32.9851C48.646 29.1875 48.8483 25.3477 48.7002 21.5133C50.8719 18.9076 51.9142 15.543 51.5958 12.166C50.8667 5.36662 44.7218 0.456117 44.4593 0.249617C44.0648 -0.0610755 43.5157 -0.0844415 43.0962 0.19161C42.6767 0.467661 42.4809 0.981184 42.6102 1.46645C43.211 3.72278 42.6907 6.10395 38.2527 11.0005C36.2587 12.9258 35.6267 15.8656 36.6532 18.4403C37.0456 19.4251 37.6079 20.3333 38.3145 21.1236C38.0322 22.9261 37.8105 24.633 37.6577 26.2955C37.3945 29.0452 37.3267 31.8101 37.4547 34.5695C36.4139 35.1337 35.4395 35.8127 34.5497 36.5936L28.8913 12.397C28.8913 12.3725 28.868 12.355 28.861 12.3328C28.842 12.255 28.8146 12.1795 28.7793 12.1076L22.9997 1.43378C22.4213 0.365435 21.1993 -0.183557 20.0165 0.0934822C18.8336 0.370521 17.9825 1.40503 17.9387 2.61912L17.5 14.7466C17.5003 14.8341 17.5101 14.9214 17.5292 15.0068C17.5292 15.0255 17.5292 15.0418 17.5292 15.0593L23.3018 39.6958C22.3912 39.736 21.4872 39.8709 20.6045 40.0983L14.2543 24.7625C13.7451 23.5901 12.3946 23.037 11.2093 23.5153L1.50383 27.5333C0.316012 28.0291 -0.248475 29.3911 0.240334 30.5818L8.85267 51.3578C3.80509 51.6228 -0.112965 55.86 0.0173169 60.9129C0.147599 65.9657 4.27881 69.9954 9.33333 70H60.6667C64.0011 69.9516 67.0565 68.128 68.6819 65.2161C70.3073 62.3042 70.2557 58.7463 68.5466 55.8828C66.8375 53.0192 63.7305 51.2849 60.396 51.3333ZM59.2072 21.1353L64.0978 18.0833L62.3665 22.2646C62.1197 22.86 62.4023 23.5427 62.9977 23.7895C63.593 24.0362 64.2757 23.7536 64.5225 23.1583L66.2538 18.977L67.55 24.5921C66.1632 26.284 65.024 28.1644 64.1667 30.177C62.9503 30.7408 61.5536 30.77 60.3147 30.2576C59.0758 29.7452 58.1077 28.7379 57.645 27.4796C58.4644 25.4498 58.9904 23.3135 59.2072 21.1353ZM56.5238 30.2948C57.2957 31.2384 58.2973 31.9676 59.4323 32.4123C60.3346 32.8004 61.305 33.005 62.2872 33.0143C62.5235 33.0134 62.7595 32.999 62.9942 32.9711L59.2713 41.9545C58.1566 39.4966 56.4321 37.3646 54.2617 35.7606L56.5238 30.2948ZM40.5405 21.9625L46.4018 22.3206C46.438 23.4103 46.4252 24.5373 46.389 25.6818C44.4364 25.8213 42.4741 25.7265 40.544 25.3995C40.397 25.3785 40.2535 25.3621 40.1077 25.3423C40.2243 24.2433 40.3667 23.1303 40.5382 21.9625H40.5405ZM39.984 12.5673C43.0815 9.15012 44.6868 6.52162 45.0602 4.05062C47.2867 6.34142 48.7563 9.26043 49.2707 12.4133C49.5157 15.158 48.667 17.8884 46.9093 20.0106C44.6048 19.8706 42.3255 19.7306 40.0715 19.5906C39.103 18.6852 38.5458 17.4238 38.5289 16.0981C38.5119 14.7724 39.0366 13.4972 39.9817 12.5673H39.984ZM39.8953 27.6675L40.2337 27.7118C41.737 27.9443 43.2545 28.0733 44.7755 28.098C45.2585 28.098 45.7672 28.0595 46.277 28.0198C46.1708 29.5213 45.997 31.0893 45.7765 32.7098C45.4883 32.6946 45.206 32.6666 44.9167 32.6666C43.1553 32.6698 41.4071 32.9707 39.746 33.5568C39.6922 31.5925 39.7413 29.6267 39.893 27.6675H39.8953ZM30.8712 41.3105L27.5333 27.0923C27.3773 26.4754 26.7558 26.0974 26.1363 26.2425C25.5167 26.3876 25.1277 27.0023 25.2618 27.6243L28.2613 40.4215C27.4366 40.1265 26.5847 39.9143 25.718 39.788L20.5975 17.9363C21.3148 18.2629 22.0937 18.4323 22.8818 18.4333C22.9553 18.4333 23.0335 18.4228 23.1082 18.4193L23.933 21.9415C24.0219 22.3537 24.3263 22.6859 24.7293 22.8103C25.1323 22.9347 25.571 22.832 25.8768 22.5416C26.1827 22.2512 26.3079 21.8183 26.2045 21.4095L25.3785 17.885C26.1701 17.5345 26.8682 17.003 27.4167 16.3333L32.6223 38.5921C31.9463 39.4353 31.3595 40.3463 30.8712 41.3105ZM23.7428 15.9938C22.2508 16.2832 20.7273 15.6731 19.8473 14.434L19.9955 10.325C20.4014 10.4008 20.8134 10.4398 21.2263 10.4416C21.6252 10.4433 22.0229 10.3991 22.4117 10.3098C23.1987 10.1031 23.9349 9.73697 24.5747 9.23412L26.5393 12.8601C26.3052 14.3646 25.2107 15.5919 23.7428 15.9961V15.9938ZM20.5473 2.36478C20.7063 2.32798 20.8703 2.4014 20.9487 2.54445L23.45 7.17028C22.9988 7.57849 22.46 7.87783 21.875 8.04528C21.2771 8.15503 20.662 8.12589 20.0772 7.96012L20.2673 2.70312C20.2737 2.54009 20.3884 2.4015 20.5473 2.36478ZM12.1042 25.6666L12.9955 27.8203L8.67883 29.6076C8.16709 29.8225 7.87759 30.3682 7.98661 30.9124C8.09562 31.4567 8.57296 31.8487 9.128 31.85C9.28128 31.8496 9.43304 31.8195 9.57483 31.7613L13.8915 29.9728L14.784 32.1288L12.6245 33.0236C12.1098 33.2366 11.8175 33.7837 11.9265 34.33C12.0355 34.8762 12.5155 35.2692 13.0725 35.2683C13.2254 35.2677 13.3767 35.2376 13.5182 35.1796L15.6777 34.2848L16.5702 36.4408L12.25 38.2316C11.7353 38.4446 11.443 38.9917 11.552 39.538C11.661 40.0842 12.141 40.4772 12.698 40.4763C12.8509 40.4759 13.0023 40.4458 13.1437 40.3876L17.4603 38.6003L18.4042 40.8788C14.6025 42.6141 11.8147 46.0071 10.85 50.0733L2.394 29.6846L12.1042 25.6666ZM60.6667 67.6666H9.33333C5.46734 67.6666 2.33333 64.5326 2.33333 60.6666C2.33333 56.8006 5.46734 53.6666 9.33333 53.6666C10.0093 53.6644 10.682 53.7619 11.3295 53.956C11.6793 54.0616 12.0584 53.9973 12.3538 53.7821C12.6492 53.5669 12.8267 53.2258 12.8333 52.8605C12.9163 48.7025 15.32 44.941 19.0582 43.1188C22.7965 41.2967 27.2403 41.7205 30.5667 44.2166C30.8606 44.4354 31.2403 44.5034 31.5919 44.4002C31.9434 44.297 32.2261 44.0346 32.3552 43.6916C34.6345 37.617 40.9341 34.0438 47.3176 35.2049C53.701 36.3659 58.339 41.9285 58.3333 48.4166C58.3356 49.7509 58.137 51.0778 57.7442 52.353C57.6216 52.7497 57.719 53.1817 58.0001 53.4873C58.2812 53.7929 58.7036 53.9261 59.1092 53.837C59.6207 53.7244 60.1429 53.6673 60.6667 53.6666C64.5327 53.6666 67.6667 56.8006 67.6667 60.6666C67.6667 64.5326 64.5327 67.6666 60.6667 67.6666Z" fill="#454545"/>
<path d="M45.1323 18.3166C45.4985 18.318 45.8441 18.1473 46.0657 17.8558C47.5222 15.8844 48.0851 13.3925 47.6173 10.9864C47.5178 10.575 47.2033 10.2498 46.7955 10.1366C46.3876 10.0233 45.9505 10.1399 45.6531 10.4411C45.3558 10.7423 45.2449 11.1809 45.3633 11.5873C45.6426 13.2969 45.2259 15.0473 44.206 16.4476C43.9409 16.8011 43.8982 17.2741 44.0958 17.6693C44.2935 18.0646 44.6974 18.3143 45.1393 18.3143L45.1323 18.3166Z" fill="#454545"/>
<path d="M43.5986 53.6667C42.731 53.6694 41.8754 53.8688 41.0961 54.25C38.9973 51.3782 35.0785 50.5369 31.986 52.2943C28.8935 54.0516 27.6105 57.8488 29.0036 61.1217C29.1869 61.5519 29.6093 61.831 30.0769 61.831C30.2341 61.8314 30.3897 61.7996 30.5342 61.7377C30.8189 61.6164 31.0437 61.387 31.1593 61.0999C31.2748 60.8129 31.2715 60.4917 31.1502 60.207C30.8963 59.615 30.7653 58.9775 30.7652 58.3333C30.7652 55.756 32.8546 53.6667 35.4319 53.6667C37.242 53.6577 38.8906 54.7066 39.6494 56.35C39.6746 56.388 39.7019 56.4246 39.7311 56.4597C39.7495 56.4997 39.7701 56.5386 39.7929 56.5763C39.8139 56.602 39.8442 56.6137 39.8676 56.6382C39.9223 56.695 39.9829 56.7458 40.0484 56.7898C40.1067 56.8347 40.1692 56.8738 40.2351 56.9065C40.3028 56.9349 40.3732 56.9568 40.4451 56.9718C40.5168 56.9907 40.5903 57.002 40.6644 57.0057C40.816 57.0045 40.9664 56.9793 41.1101 56.931C41.1412 56.9253 41.1719 56.9179 41.2022 56.9088C41.2401 56.8844 41.2763 56.8575 41.3107 56.8283C41.3527 56.8097 41.3936 56.7886 41.4332 56.7653C42.0461 56.2698 42.8104 55.9996 43.5986 56C44.9627 56.0022 46.2012 56.7968 46.7719 58.0358C47.0393 58.6222 47.7314 58.8807 48.3177 58.6134C48.9041 58.346 49.1626 57.6539 48.8952 57.0675C47.9452 54.9969 45.8767 53.6687 43.5986 53.6667Z" fill="#454545"/>
<path d="M20.6315 45.5595C20.4553 45.6167 16.3335 47.0424 16.3335 51.3334C16.3335 51.9777 16.8558 52.5 17.5002 52.5C18.1445 52.5 18.6668 51.9777 18.6668 51.3334C18.7621 49.7059 19.8329 48.2979 21.3758 47.7715C21.9879 47.566 22.3175 46.9031 22.112 46.291C21.9064 45.6789 21.2436 45.3493 20.6315 45.5549V45.5595Z" fill="#454545"/>
<path d="M37.0499 44.2983C37.1426 44.3218 37.2378 44.3336 37.3334 44.3333C37.8681 44.3328 38.334 43.9688 38.4639 43.4501C39.0009 41.2716 40.9295 39.7219 43.1726 39.6666C43.8169 39.665 44.338 39.1414 44.3364 38.4971C44.3347 37.8527 43.8111 37.3317 43.1668 37.3333C39.8507 37.3774 36.9851 39.6607 36.2017 42.8831C36.0452 43.5081 36.4249 44.1417 37.0499 44.2983Z" fill="#454545"/>
</g>
<defs>
<clipPath id="clip0_46_2368">
<rect width="70" height="70" fill="white"/>
</clipPath>
</defs>
</svg>
