<svg width="70" height="70" viewBox="0 0 70 70" fill="none" xmlns="http://www.w3.org/2000/svg">
<g clip-path="url(#clip0_46_2376)">
<path d="M67.9492 0H59.7461C58.6135 0 57.6953 0.918203 57.6953 2.05078V4.10156H40.7996C39.953 1.71473 37.6735 0 35 0C32.3265 0 30.047 1.71473 29.2004 4.10156H12.3047V2.05078C12.3047 0.918203 11.3865 0 10.2539 0H2.05078C0.918203 0 0 0.918203 0 2.05078V10.2539C0 11.3865 0.918203 12.3047 2.05078 12.3047H10.2539C11.3865 12.3047 12.3047 11.3865 12.3047 10.2539V8.17578H20.8328C13.4341 12.8617 8.93662 20.7778 8.39563 29.1815C5.9798 30.0122 4.23828 32.3058 4.23828 35C4.23828 38.3924 6.99822 41.1523 10.3906 41.1523C13.783 41.1523 16.543 38.3924 16.543 35C16.543 32.3504 14.8593 30.0866 12.5057 29.2223C13.2338 19.5635 20.189 11.2446 29.4897 8.88426C30.4979 10.9093 32.5884 12.3047 35 12.3047C37.4116 12.3047 39.5021 10.9093 40.5103 8.88439C49.8111 11.2447 56.7662 19.5636 57.4943 29.2224C55.1407 30.0866 53.457 32.3504 53.457 35C53.457 38.3924 56.217 41.1523 59.6094 41.1523C63.0018 41.1523 65.7617 38.3924 65.7617 35C65.7617 32.3058 64.0202 30.0122 61.6044 29.1815C61.0623 20.761 56.5514 12.8799 49.1672 8.20312H57.6953V10.2539C57.6953 11.3865 58.6135 12.3047 59.7461 12.3047H67.9492C69.0818 12.3047 70 11.3865 70 10.2539V2.05078C70 0.918203 69.0818 0 67.9492 0ZM8.20312 8.20312H4.10156V4.10156H8.20312V8.20312ZM10.3906 37.0508C9.25982 37.0508 8.33984 36.1308 8.33984 35C8.33984 33.8692 9.25982 32.9492 10.3906 32.9492C11.5214 32.9492 12.4414 33.8692 12.4414 35C12.4414 36.1308 11.5214 37.0508 10.3906 37.0508ZM35 8.20312C33.8692 8.20312 32.9492 7.28314 32.9492 6.15234C32.9492 5.02154 33.8692 4.10156 35 4.10156C36.1308 4.10156 37.0508 5.02154 37.0508 6.15234C37.0508 7.28314 36.1308 8.20312 35 8.20312ZM59.6094 32.9492C60.7402 32.9492 61.6602 33.8692 61.6602 35C61.6602 36.1308 60.7402 37.0508 59.6094 37.0508C58.4786 37.0508 57.5586 36.1308 57.5586 35C57.5586 33.8692 58.4786 32.9492 59.6094 32.9492ZM65.8984 8.20312H61.7969V4.10156H65.8984V8.20312Z" fill="#454545"/>
<path d="M53.1125 42.0655L36.7062 17.4562C36.7057 17.4554 36.705 17.4546 36.7045 17.4536C36.6986 17.4449 36.6922 17.4365 36.6861 17.4279C36.658 17.387 36.6283 17.3477 36.5974 17.3092C35.7332 16.2354 34.0877 16.3079 33.3138 17.4279C33.3078 17.4365 33.3014 17.4449 33.2955 17.4536C33.295 17.4546 33.2943 17.4553 33.2937 17.4562L16.8875 42.0656C16.3451 42.8789 16.4524 43.962 17.1437 44.6533C21.2353 48.7449 23.8395 54.0933 24.5489 59.8155C24.2305 60.073 23.923 60.3486 23.6315 60.6469C21.7053 62.6173 20.6445 65.2107 20.6445 67.9492C20.6445 69.0818 21.5627 70 22.6953 70H47.3047C48.4373 70 49.3555 69.0818 49.3555 67.9492C49.3555 65.2107 48.2947 62.6173 46.3686 60.6468C46.0769 60.3485 45.7696 60.0728 45.451 59.8154C46.1603 54.0929 48.7646 48.7444 52.8561 44.6533C53.5475 43.962 53.6549 42.8788 53.1125 42.0655ZM35 41.1523C36.1308 41.1523 37.0508 42.0723 37.0508 43.2031C37.0508 44.3339 36.1308 45.2539 35 45.2539C33.8692 45.2539 32.9492 44.3339 32.9492 43.2031C32.9492 42.0723 33.8692 41.1523 35 41.1523ZM25.0958 65.8984C25.9491 63.4603 28.2621 61.6601 30.8984 61.6601H39.1015C41.7379 61.6601 44.0509 63.4603 44.9042 65.8984H25.0958ZM41.596 57.8707C40.7893 57.6648 39.9532 57.5586 39.1015 57.5586H30.8984C30.0468 57.5586 29.2106 57.6648 28.404 57.8708C27.4442 52.3434 24.9517 47.1766 21.2057 42.9823L32.9492 25.367V37.4036C30.5622 38.2502 28.8476 40.5297 28.8476 43.2032C28.8476 46.5956 31.6076 49.3556 35 49.3556C38.3924 49.3556 41.1523 46.5956 41.1523 43.2032C41.1523 40.5297 39.4377 38.2502 37.0508 37.4036V25.367L48.7944 42.9823C45.0483 47.1761 42.5556 52.3432 41.596 57.8707Z" fill="#454545"/>
</g>
<defs>
<clipPath id="clip0_46_2376">
<rect width="70" height="70" fill="white"/>
</clipPath>
</defs>
</svg>
