<svg width="70" height="70" viewBox="0 0 70 70" fill="none" xmlns="http://www.w3.org/2000/svg">
<g clip-path="url(#clip0_46_2360)">
<path d="M28.9441 4.54314C28.9441 5.10943 29.4031 5.56853 29.9695 5.56853H36.8356C37.4021 5.56853 37.861 5.10943 37.861 4.54314C37.861 3.97685 37.4021 3.51775 36.8356 3.51775H29.9695C29.4031 3.51775 28.9441 3.97685 28.9441 4.54314Z" fill="#454545"/>
<path d="M36.5559 63.5682C36.5559 61.8294 35.1412 60.4147 33.4024 60.4147C31.6637 60.4147 30.249 61.8294 30.249 63.5682C30.249 65.307 31.6637 66.7216 33.4024 66.7216C35.1412 66.7216 36.5559 65.3071 36.5559 63.5682ZM32.2997 63.5682C32.2997 62.9602 32.7943 62.4655 33.4023 62.4655C34.0103 62.4655 34.5049 62.9602 34.5049 63.5682C34.5049 64.1762 34.0103 64.6708 33.4023 64.6708C32.7943 64.6708 32.2997 64.1763 32.2997 63.5682Z" fill="#454545"/>
<path d="M38.0305 13.8662H50.9525C51.5189 13.8662 51.9779 13.4071 51.9779 12.8409C51.9779 12.2746 51.5189 11.8155 50.9525 11.8155H38.0305C37.4641 11.8155 37.0051 12.2746 37.0051 12.8409C37.0051 13.4071 37.4641 13.8662 38.0305 13.8662Z" fill="#454545"/>
<path d="M38.0305 17.9131H50.9525C51.5189 17.9131 51.9779 17.454 51.9779 16.8877C51.9779 16.3214 51.5189 15.8623 50.9525 15.8623H38.0305C37.4641 15.8623 37.0051 16.3214 37.0051 16.8877C37.0051 17.454 37.4641 17.9131 38.0305 17.9131Z" fill="#454545"/>
<path d="M51.9779 20.9346C51.9779 20.3683 51.5189 19.9092 50.9525 19.9092H38.0305C37.4641 19.9092 37.0051 20.3683 37.0051 20.9346C37.0051 21.5009 37.4641 21.96 38.0305 21.96H50.9525C51.5188 21.96 51.9779 21.5009 51.9779 20.9346Z" fill="#454545"/>
<path d="M31.1 0H19.099C15.9635 0 13.4126 2.55088 13.4126 5.68636V64.3135C13.4126 67.449 15.9635 70 19.099 70H47.7063C50.8419 70 53.3928 67.449 53.3928 64.3135V26.6098C55.2064 26.2866 56.5879 24.699 56.5879 22.7941V10.9444C56.5879 9.03936 55.2064 7.45207 53.3928 7.12887V5.68636C53.3927 2.55088 50.8418 0 47.7062 0H35.885C35.3186 0 34.8596 0.459098 34.8596 1.02538C34.8596 1.59167 35.3186 2.05077 35.885 2.05077H47.7062C49.7109 2.05077 51.3419 3.68167 51.3419 5.68636V7.06776C50.0032 7.06776 20.5905 7.06776 19.0988 7.06776C18.305 7.06776 17.6595 7.71347 17.6595 8.50698V58.0663C17.6595 58.8601 18.3052 59.5058 19.0988 59.5058H47.7062C48.5 59.5058 49.1455 58.8601 49.1455 58.0663V44.1792C49.1455 43.6129 48.6866 43.1538 48.1202 43.1538C47.5537 43.1538 47.0948 43.6129 47.0948 44.1792V57.4551H19.7102V14.4401H32.4672V22.7941C32.4672 22.8942 32.4723 22.9929 32.4798 23.0911C26.6716 23.5626 22.0887 28.4367 22.0887 34.3643C22.0887 40.6292 27.1891 45.6782 33.4026 45.6782C39.6258 45.6782 44.7167 40.6098 44.7167 34.3643C44.7167 31.4575 43.623 28.7348 41.7007 26.6707H46.5649C46.4527 26.8762 46.5319 26.7444 44.9091 29.2957C44.5461 29.8664 44.5995 30.5933 45.0424 31.1046C45.4927 31.6247 46.2127 31.7657 46.8138 31.4951L47.095 31.3685V39.3942C47.095 39.9605 47.554 40.4196 48.1204 40.4196C48.6869 40.4196 49.1458 39.9605 49.1458 39.3942V30.4182C49.9754 29.9697 50.7175 29.3909 51.342 28.721V64.3138C51.342 66.3185 49.711 67.9495 47.7063 67.9495H19.0988C17.0941 67.9495 15.4632 66.3185 15.4632 64.3138V5.68636C15.4632 3.68167 17.0941 2.05077 19.0988 2.05077H31.0999C31.6663 2.05077 32.1253 1.59167 32.1253 1.02538C32.1253 0.459098 31.6663 0 31.1 0V0ZM22.9921 12.3894H19.7102V9.11852H22.9921V12.3894ZM32.4672 10.9444V12.3892H25.0429V9.11852H32.9247C32.6307 9.66526 32.4672 10.307 32.4672 10.9444ZM38.9553 41.774C37.3171 43.0047 35.3462 43.6274 33.4026 43.6274C31.4632 43.6274 29.4928 43.008 27.8501 41.774V39.3601C27.8501 38.1103 28.8669 37.0936 30.1165 37.0936H36.6888C37.9387 37.0936 38.9553 38.1103 38.9553 39.3601V41.774ZM30.6662 32.3064C30.6662 30.7976 31.8938 29.57 33.4026 29.57C34.9115 29.57 36.139 30.7976 36.139 32.3064C36.139 33.8152 34.9115 35.0428 33.4026 35.0428C31.8938 35.0428 30.6662 33.8152 30.6662 32.3064ZM42.6658 34.3643C42.6658 36.3264 42.0508 38.1467 41.0059 39.6461V39.3601C41.0059 37.1857 39.3899 35.3825 37.2961 35.0864C37.8577 34.3021 38.1897 33.3426 38.1897 32.3065C38.1897 29.6669 36.0422 27.5194 33.4025 27.5194C30.7628 27.5194 28.6153 29.6669 28.6153 32.3065C28.6153 33.3426 28.9473 34.3021 29.5089 35.0864C27.4151 35.3827 25.7991 37.1858 25.7991 39.3601V39.6462C24.7543 38.1467 24.1392 36.3264 24.1392 34.3643C24.1392 29.3136 28.2023 25.1943 33.2313 25.1026C33.9639 26.0876 35.1193 26.6707 36.3436 26.6707H38.5591C41.1363 28.3986 42.6658 31.2534 42.6658 34.3643ZM50.9316 25.7337C50.2527 27.1309 49.1603 28.1884 47.5953 28.8936C48.1269 28.0579 48.4785 27.5667 48.8066 26.6865C49.1804 25.6834 48.4394 24.62 47.3771 24.62C45.1963 24.62 38.6542 24.62 36.3438 24.62C35.3206 24.62 34.518 23.7651 34.518 22.7941C34.518 21.6151 34.518 12.1321 34.518 10.9445C34.518 9.93773 35.3371 9.11866 36.3438 9.11866H52.7111C53.7179 9.11866 54.537 9.93773 54.537 10.9445V22.7941C54.537 23.8009 53.7179 24.62 52.7111 24.62C51.9551 24.62 51.2561 25.0653 50.9316 25.7337Z" fill="#454545"/>
</g>
<defs>
<clipPath id="clip0_46_2360">
<rect width="70" height="70" fill="white"/>
</clipPath>
</defs>
</svg>
