<svg width="70" height="70" viewBox="0 0 70 70" fill="none" xmlns="http://www.w3.org/2000/svg">
<g clip-path="url(#clip0_45_2102)">
<path d="M12.4836 9.46506C12.4836 7.56862 10.9412 6.02626 9.04481 6.02626C7.14836 6.02626 5.60547 7.56862 5.60547 9.46506C5.60547 11.3615 7.14836 12.9039 9.04481 12.9039C10.9407 12.9039 12.4836 11.3615 12.4836 9.46506ZM7.65625 9.46506C7.65625 8.69976 8.2795 8.07705 9.04481 8.07705C9.81011 8.07705 10.4328 8.69976 10.4328 9.46506C10.4328 10.2304 9.81011 10.8531 9.04481 10.8531C8.2795 10.8531 7.65625 10.2304 7.65625 9.46506Z" fill="#2D373D"/>
<path d="M17.2149 12.9039C19.1114 12.9039 20.6543 11.3615 20.6543 9.46506C20.6543 7.56862 19.1114 6.02626 17.2149 6.02626C15.3185 6.02626 13.7761 7.56862 13.7761 9.46506C13.7761 11.3615 15.3185 12.9039 17.2149 12.9039ZM17.2149 8.07705C17.9808 8.07705 18.6035 8.69976 18.6035 9.46506C18.6035 10.2304 17.9802 10.8531 17.2149 10.8531C16.4496 10.8531 15.8269 10.2304 15.8269 9.46506C15.8269 8.69976 16.4496 8.07705 17.2149 8.07705Z" fill="#2D373D"/>
<path d="M25.3854 12.9039C27.2813 12.9039 28.8242 11.3615 28.8242 9.46506C28.8242 7.56862 27.2813 6.02626 25.3854 6.02626C23.4889 6.02626 21.946 7.56862 21.946 9.46506C21.946 11.3615 23.4889 12.9039 25.3854 12.9039ZM25.3854 8.07705C26.1507 8.07705 26.7734 8.69976 26.7734 9.46506C26.7734 10.2304 26.1507 10.8531 25.3854 10.8531C24.6195 10.8531 23.9968 10.2304 23.9968 9.46506C23.9968 8.69976 24.6195 8.07705 25.3854 8.07705Z" fill="#2D373D"/>
<path d="M36.7319 10.4905H61.7056C62.2722 10.4905 62.731 10.0317 62.731 9.46506C62.731 8.89842 62.2722 8.43967 61.7056 8.43967H36.7319C36.1653 8.43967 35.7065 8.89842 35.7065 9.46506C35.7065 10.0317 36.1653 10.4905 36.7319 10.4905Z" fill="#2D373D"/>
<path d="M65.5819 2.32419H4.14483C1.78429 2.32419 -0.136719 4.24466 -0.136719 6.60574V63.6517C-0.136719 66.0123 1.78429 67.9333 4.14483 67.9333H65.5819C67.9424 67.9333 69.8634 66.0123 69.8634 63.6517V6.60574C69.8634 4.24466 67.9424 2.32419 65.5819 2.32419ZM65.5819 65.8825H4.14483C2.91489 65.8825 1.91407 64.8817 1.91407 63.6517V16.606H7.6301C8.19673 16.606 8.65549 16.1472 8.65549 15.5806C8.65549 15.0145 8.19673 14.5552 7.6301 14.5552H1.91407V6.60574C1.91407 5.3758 2.91489 4.37497 4.14483 4.37497H65.5819C66.8118 4.37497 67.8126 5.3758 67.8126 6.60574V14.5552H11.4582C10.8921 14.5552 10.4328 15.0145 10.4328 15.5806C10.4328 16.1472 10.8921 16.606 11.4582 16.606H67.8126V63.6517C67.8126 64.8817 66.8118 65.8825 65.5819 65.8825Z" fill="#2D373D"/>
<path d="M57.8871 19.1625H48.9256C47.1354 19.1625 45.6791 20.6188 45.6791 22.409V23.6496C44.6275 23.9834 43.796 24.8155 43.4633 25.8676L27.4474 25.9279C27.1136 24.879 26.2831 24.0496 25.2337 23.7164V22.4763C25.2337 20.6861 23.7773 19.2298 21.9872 19.2298H13.0262C11.236 19.2298 9.77965 20.6861 9.77965 22.4763V31.4373C9.77965 33.2274 11.236 34.6833 13.0262 34.6833H14.2663C14.5995 35.7343 15.4305 36.5653 16.4816 36.8986V41.0882C16.4816 43.2501 18.2402 45.0088 20.4021 45.0088H30.0611C30.3943 46.0593 31.2253 46.8903 32.2758 47.2235V48.5346C32.2758 50.2858 33.7007 51.7107 35.4518 51.7107H36.8409C37.1357 52.7382 37.9037 53.5671 38.8928 53.9468C38.598 54.5342 37.9902 54.938 37.2901 54.938H26.3376C26.0722 53.7561 25.1894 52.8055 24.0476 52.4429V51.2022C24.0476 49.4121 22.5912 47.9557 20.801 47.9557H11.8395C10.0499 47.9557 8.59351 49.4121 8.59351 51.2022V60.1637C8.59351 61.9539 10.0499 63.4098 11.8395 63.4098H20.801C22.5912 63.4098 24.0476 61.9539 24.0476 60.1637V58.9231C25.0025 58.6198 25.7763 57.9058 26.1592 56.9888H37.2901C39.0995 56.9888 40.621 55.7316 41.0269 54.045C42.1569 53.7273 43.0504 52.8381 43.3746 51.7107H44.5538C46.3055 51.7107 47.7299 50.2858 47.7299 48.5346V45.8371C47.7299 45.2705 47.2711 44.8117 46.7045 44.8117C46.1384 44.8117 45.6791 45.2705 45.6791 45.8371V48.5346C45.6791 49.1552 45.1744 49.6599 44.5538 49.6599H43.3185C42.2525 46.6008 37.9491 46.6248 36.8965 49.6599H35.4518C34.8313 49.6599 34.3266 49.1552 34.3266 48.5346V47.2235C34.5455 47.1541 34.7522 47.0649 34.9541 46.9522C34.9685 46.9378 36.6994 46.0635 36.6994 43.9834C36.6994 42.5099 35.7445 41.1956 34.3266 40.7432V39.4327C34.3266 38.8121 34.8313 38.3074 35.4518 38.3074H44.5538C45.1744 38.3074 45.6791 38.8121 45.6791 39.4327V42.1302C45.6791 42.6963 46.1384 43.1556 46.7045 43.1556C47.2711 43.1556 47.7299 42.6963 47.7299 42.1302V39.4327C47.7299 37.6815 46.305 36.2566 44.5538 36.2566H35.4518C33.7007 36.2566 32.2758 37.6815 32.2758 39.4327V40.7432C31.2253 41.0765 30.3943 41.9075 30.0611 42.958H20.4026C19.3713 42.958 18.5323 42.119 18.5323 41.0882V36.8986C19.5828 36.5653 20.4138 35.7343 20.7471 34.6833H21.9877C23.7773 34.6833 25.2337 33.2274 25.2337 31.4373V30.1966C26.2858 29.8629 27.1173 29.0308 27.4495 27.9787L43.4654 27.9184C43.7992 28.9672 44.6296 29.7972 45.6791 30.1299V31.3705C45.6791 33.1607 47.1354 34.6171 48.9256 34.6171H57.8871C59.6767 34.6171 61.1331 33.1607 61.1331 31.3705V22.409C61.1331 20.6188 59.6767 19.1625 57.8871 19.1625ZM23.0222 57.0304C22.2788 57.0304 21.6747 56.4259 21.6747 55.683C21.6747 54.9401 22.2793 54.3356 23.0222 54.3356C23.765 54.3356 24.3696 54.9401 24.3696 55.683C24.3696 56.4259 23.765 57.0304 23.0222 57.0304ZM21.9968 60.1637C21.9968 60.8228 21.4606 61.359 20.801 61.359H11.8395C11.1805 61.359 10.6443 60.8228 10.6443 60.1637V51.2022C10.6443 50.5427 11.1805 50.0065 11.8395 50.0065H20.801C21.4606 50.0065 21.9968 50.5427 21.9968 51.2022V52.4429C18.817 53.456 18.8538 57.9212 21.9968 58.9231V60.1637ZM41.4547 50.7793C41.4515 51.5195 40.8485 52.1203 40.1072 52.1203C39.3665 52.1203 38.7635 51.5195 38.7603 50.7793C38.9291 48.9288 41.2928 49.0067 41.4547 50.7793ZM33.5057 42.6514C34.1519 42.7508 34.6486 43.3105 34.6486 43.9834C34.6486 44.7279 34.043 45.3308 33.3012 45.3308C32.5578 45.3308 31.9538 44.7262 31.9538 43.9834C31.9538 43.1615 32.6881 42.5265 33.5057 42.6514ZM24.2083 28.3039C23.4654 28.3039 22.8609 27.6994 22.8609 26.9565C22.8609 26.2136 23.4654 25.6091 24.2083 25.6091C24.9512 25.6091 25.5557 26.2136 25.5557 26.9565C25.5557 27.6994 24.9517 28.3039 24.2083 28.3039ZM17.5069 35.0058C16.6898 35.0058 16.049 34.2769 16.175 33.4533C16.2738 32.8071 16.8335 32.311 17.5069 32.311C18.2493 32.311 18.8544 32.9145 18.8544 33.6579C18.8544 34.4013 18.2498 35.0058 17.5069 35.0058ZM23.1829 31.4373C23.1829 32.0963 22.6467 32.6325 21.9872 32.6325H20.7471C20.2141 30.9678 18.5206 29.9825 16.8255 30.3286C16.8111 30.336 14.9045 30.6388 14.2668 32.6325H13.0262C12.3666 32.6325 11.8304 32.0963 11.8304 31.4373V22.4758C11.8304 21.8167 12.3666 21.28 13.0262 21.28H21.9877C22.6467 21.28 23.1829 21.8167 23.1829 22.4758V23.7164C21.7447 24.1746 20.7369 25.5477 20.8144 27.1279C20.8202 27.1418 20.8347 29.4479 23.1829 30.1966V31.4373ZM46.7045 25.5423C47.4457 25.5423 48.0519 26.1453 48.0519 26.8898C48.0519 27.6353 47.4447 28.2372 46.7045 28.2372C45.9616 28.2372 45.357 27.6326 45.357 26.8898C45.357 26.1469 45.9616 25.5423 46.7045 25.5423ZM59.0823 31.3705C59.0823 32.0295 58.5461 32.5663 57.8871 32.5663H48.9256C48.266 32.5663 47.7299 32.0295 47.7299 31.3705V30.1299C49.1953 29.6631 50.1774 28.2703 50.0984 26.7157V26.7151C50.0274 25.3052 49.081 24.0801 47.7299 23.6496V22.409C47.7299 21.75 48.266 21.2138 48.9256 21.2138H57.8871C58.5461 21.2138 59.0823 21.75 59.0823 22.409V31.3705Z" fill="#2D373D"/>
</g>
<defs>
<clipPath id="clip0_45_2102">
<rect width="70" height="70" fill="white"/>
</clipPath>
</defs>
</svg>
