<svg width="70" height="70" viewBox="0 0 70 70" fill="none" xmlns="http://www.w3.org/2000/svg">
<path d="M68.6328 1.40123H1.36718C0.612087 1.40123 0 2.01345 0 2.76841V16.8311C0 17.5861 0.612087 18.1983 1.36718 18.1983H68.6328C69.3879 18.1983 70 17.5861 70 16.8311V2.76841C70 2.01345 69.3879 1.40123 68.6328 1.40123ZM67.2656 15.4639H2.73436V4.1356H67.2656V15.4639Z" fill="#454545"/>
<path d="M64.177 12.3585L63.0604 11.2419C63.3652 10.6393 63.5275 9.96963 63.5275 9.27483C63.5275 8.10821 63.0732 7.01119 62.2482 6.18623C60.5452 4.4834 57.7744 4.48327 56.0713 6.18623C55.2463 7.01119 54.792 8.10821 54.792 9.27483C54.792 10.4414 55.2464 11.5385 56.0713 12.3633C56.8964 13.1883 57.9933 13.6426 59.1599 13.6426C59.8548 13.6426 60.5243 13.4801 61.127 13.1755L62.2436 14.2921C62.5106 14.559 62.8604 14.6926 63.2103 14.6926C63.5601 14.6926 63.9101 14.559 64.177 14.2921C64.7109 13.7582 64.7109 12.8925 64.177 12.3585ZM60.3149 10.4297C60.0064 10.7383 59.5963 10.9082 59.1599 10.9082C58.7235 10.9082 58.3134 10.7383 58.0049 10.4297C57.6964 10.1211 57.5264 9.7111 57.5264 9.27483C57.5264 8.83856 57.6964 8.42827 58.0049 8.11983C58.3233 7.80142 58.7416 7.64228 59.1599 7.64228C59.5781 7.64228 59.9964 7.80142 60.3149 8.11983C60.6233 8.42841 60.7934 8.83856 60.7934 9.27483C60.7934 9.7111 60.6234 10.1213 60.3149 10.4297Z" fill="#454545"/>
<path d="M48.9917 12.0081C48.9739 11.9205 48.9479 11.8343 48.9138 11.7524C48.8796 11.6703 48.8372 11.5897 48.788 11.5159C48.7388 11.4421 48.6813 11.371 48.6184 11.3081C48.5556 11.2452 48.4858 11.1878 48.4106 11.1386C48.3368 11.0894 48.2575 11.047 48.1741 11.0128C48.0921 10.9786 48.006 10.9526 47.9185 10.9349C47.7421 10.8993 47.5602 10.8993 47.3839 10.9349C47.2964 10.9526 47.2103 10.9786 47.1282 11.0128C47.0462 11.047 46.9669 11.0894 46.8931 11.1386C46.8179 11.1878 46.7481 11.2452 46.6839 11.3081C46.621 11.371 46.5649 11.442 46.5144 11.5159C46.4651 11.5897 46.4228 11.6704 46.3886 11.7524C46.3544 11.8345 46.3284 11.9205 46.3106 12.0081C46.2929 12.0968 46.2847 12.1858 46.2847 12.2761C46.2847 12.3648 46.2929 12.4538 46.3106 12.5427C46.3284 12.6302 46.3544 12.7163 46.3886 12.7982C46.4228 12.8804 46.4651 12.9597 46.5144 13.0347C46.5649 13.1085 46.621 13.1796 46.6839 13.2425C46.7481 13.3054 46.8179 13.363 46.8931 13.4121C46.9669 13.4613 47.0462 13.5037 47.1282 13.5378C47.2116 13.572 47.2978 13.598 47.3839 13.6158C47.4728 13.6335 47.563 13.6417 47.6518 13.6417C47.7407 13.6417 47.831 13.6334 47.9185 13.6158C48.006 13.5981 48.0921 13.572 48.1741 13.5378C48.2561 13.5037 48.3368 13.4613 48.4106 13.4121C48.4858 13.363 48.5556 13.3054 48.6184 13.2425C48.8727 12.987 49.019 12.6356 49.019 12.2761C49.019 12.1858 49.0095 12.0968 48.9917 12.0081Z" fill="#454545"/>
<path d="M42.4683 10.9082H14.0537C13.2986 10.9082 12.6865 11.5204 12.6865 12.2754C12.6865 13.0303 13.2986 13.6426 14.0537 13.6426H42.4683C43.2234 13.6426 43.8355 13.0303 43.8355 12.2754C43.8355 11.5204 43.2234 10.9082 42.4683 10.9082Z" fill="#454545"/>
<path d="M43.0419 20.1473H1.5288C0.773709 20.1473 0.161621 20.7596 0.161621 21.5145V48.4752C0.161621 49.2303 0.773709 49.8424 1.5288 49.8424H43.0419C43.797 49.8424 44.4091 49.2302 44.4091 48.4752V21.5145C44.4091 20.7596 43.797 20.1473 43.0419 20.1473ZM16.6533 47.1079H5.04848L12.864 38.0591L18.5241 44.6133L16.6533 47.1079ZM20.0712 47.1079L22.6205 43.7089H29.2498C30.0049 43.7089 30.617 43.0967 30.617 42.3418C30.617 41.5868 30.0049 40.9746 29.2498 40.9746H24.6714L25.6306 39.6957H34.215L39.7746 47.1079H20.0712ZM27.6812 36.9613L29.9227 33.9728L32.1642 36.9613H27.6812ZM41.6747 45.0842L31.0165 30.8737C30.7582 30.5294 30.353 30.3268 29.9227 30.3268C29.4925 30.3268 29.0872 30.5294 28.829 30.8737L20.2034 42.3743L13.8988 35.0735C13.6392 34.7729 13.2614 34.6 12.8641 34.6C12.4668 34.6 12.0892 34.7729 11.8294 35.0735L2.89599 45.4167V22.8817H41.6747V45.0842Z" fill="#454545"/>
<path d="M18.8188 24.4515C16.1536 24.4515 13.9854 26.6197 13.9854 29.2849C13.9854 31.9501 16.1537 34.1183 18.8188 34.1183C21.4839 34.1183 23.6522 31.9501 23.6522 29.2849C23.6522 26.6197 21.4839 24.4515 18.8188 24.4515ZM18.8188 31.3841C17.6613 31.3841 16.7197 30.4425 16.7197 29.2851C16.7197 28.1276 17.6614 27.186 18.8188 27.186C19.9761 27.186 20.9178 28.1276 20.9178 29.2851C20.9178 30.4425 19.9762 31.3841 18.8188 31.3841Z" fill="#454545"/>
<path d="M68.6328 20.1473H47.6206C46.8655 20.1473 46.2534 20.7596 46.2534 21.5145V48.4752C46.2534 49.2302 46.8655 49.8424 47.6206 49.8424H68.6328C69.3879 49.8424 70 49.2302 70 48.4752V21.5145C70 20.7596 69.3879 20.1473 68.6328 20.1473ZM67.2656 47.108H48.9878V22.8817H67.2656V47.108Z" fill="#454545"/>
<path d="M64.0823 25.1336H52.1709C51.4158 25.1336 50.8037 25.7458 50.8037 26.5008C50.8037 27.2557 51.4158 27.868 52.1709 27.868H64.0823C64.8374 27.868 65.4495 27.2557 65.4495 26.5008C65.4495 25.7458 64.8374 25.1336 64.0823 25.1336Z" fill="#454545"/>
<path d="M64.0823 30.6206H52.1709C51.4158 30.6206 50.8037 31.2329 50.8037 31.9878C50.8037 32.7428 51.4158 33.355 52.1709 33.355H64.0823C64.8374 33.355 65.4495 32.7428 65.4495 31.9878C65.4495 31.2329 64.8374 30.6206 64.0823 30.6206Z" fill="#454545"/>
<path d="M64.0823 36.1077H52.1709C51.4158 36.1077 50.8037 36.7199 50.8037 37.4748C50.8037 38.2298 51.4158 38.842 52.1709 38.842H64.0823C64.8374 38.842 65.4495 38.2298 65.4495 37.4748C65.4495 36.7199 64.8374 36.1077 64.0823 36.1077Z" fill="#454545"/>
<path d="M53.5116 42.6945C53.4938 42.6069 53.4679 42.5208 53.4337 42.4389C53.3995 42.3567 53.3571 42.2774 53.3079 42.2023C53.2573 42.1285 53.2013 42.0574 53.137 41.9945C52.8198 41.6773 52.3481 41.5309 51.9038 41.6213C51.8163 41.6391 51.7302 41.665 51.6481 41.6992C51.5661 41.7334 51.4868 41.7758 51.4116 41.825C51.3378 41.8742 51.2667 41.9316 51.2038 41.9945C51.1409 42.0574 51.0835 42.1284 51.0343 42.2023C50.9851 42.2775 50.9427 42.3568 50.9085 42.4389C50.8743 42.5209 50.8483 42.6069 50.8306 42.6945C50.8128 42.7833 50.8032 42.8723 50.8032 42.961C50.8032 43.0512 50.8128 43.1402 50.8306 43.229C50.8483 43.3166 50.8743 43.4027 50.9085 43.4848C50.9427 43.5669 50.9851 43.6462 51.0343 43.7213C51.0835 43.7951 51.1409 43.8662 51.2038 43.9291C51.2667 43.992 51.3378 44.0494 51.4116 44.0986C51.4868 44.1478 51.5661 44.1902 51.6481 44.2244C51.7302 44.2586 51.8163 44.2846 51.9038 44.3023C51.9927 44.3201 52.0815 44.3297 52.1718 44.3297C52.5313 44.3297 52.8827 44.1834 53.137 43.929C53.1999 43.8661 53.2573 43.7951 53.3079 43.7211C53.3571 43.6459 53.3995 43.5666 53.4337 43.4846C53.4679 43.4026 53.4938 43.3166 53.5116 43.229C53.5294 43.1402 53.5376 43.0512 53.5376 42.961C53.5376 42.8723 53.5294 42.7833 53.5116 42.6945Z" fill="#454545"/>
<path d="M64.0824 41.5946H57.354C56.5989 41.5946 55.9868 42.2069 55.9868 42.9618C55.9868 43.7168 56.5989 44.329 57.354 44.329H64.0824C64.8375 44.329 65.4496 43.7168 65.4496 42.9618C65.4496 42.2069 64.8375 41.5946 64.0824 41.5946Z" fill="#454545"/>
<path d="M22.541 51.7822H1.5288C0.773709 51.7822 0.161621 52.3944 0.161621 53.1493V67.2316C0.161621 67.9865 0.773709 68.5988 1.5288 68.5988H22.541C23.2961 68.5988 23.9082 67.9865 23.9082 67.2316V53.1493C23.9082 52.3944 23.2961 51.7822 22.541 51.7822ZM21.1738 65.8644H2.89599V54.5165H21.1738V65.8644Z" fill="#454545"/>
<path d="M68.633 51.7822H27.3066C26.5515 51.7822 25.9395 52.3944 25.9395 53.1493V67.2316C25.9395 67.9865 26.5515 68.5988 27.3066 68.5988H68.633C69.3881 68.5988 70.0002 67.9865 70.0002 67.2316V53.1493C70.0002 52.3944 69.3881 51.7822 68.633 51.7822ZM67.2658 65.8644H28.6738V54.5165H67.2658V65.8644Z" fill="#454545"/>
<path d="M34.9014 59.9238C34.8836 59.8365 34.8576 59.7502 34.8234 59.6682C34.7892 59.5848 34.7469 59.5056 34.6976 59.4318C34.6484 59.3564 34.591 59.2867 34.5281 59.2238C34.4652 59.1609 34.3955 59.1035 34.3203 59.0543C34.2465 59.0052 34.1672 58.9627 34.0838 58.9285C34.0017 58.8943 33.9156 58.867 33.8281 58.8492C33.6517 58.815 33.4699 58.815 33.2935 58.8492C33.2074 58.867 33.1213 58.8943 33.0379 58.9285C32.9559 58.9627 32.8766 59.0052 32.8027 59.0543C32.7275 59.1035 32.6578 59.1609 32.5949 59.2238C32.532 59.2867 32.4746 59.3564 32.424 59.4318C32.3748 59.5056 32.3324 59.5848 32.2982 59.6682C32.2641 59.7503 32.2381 59.8363 32.2203 59.9238C32.2025 60.0113 32.1943 60.1016 32.1943 60.1904C32.1943 60.2792 32.2025 60.3695 32.2203 60.457C32.2381 60.5444 32.2641 60.6305 32.2982 60.7139C32.3324 60.7959 32.3748 60.8752 32.424 60.9491C32.4746 61.0243 32.532 61.094 32.5949 61.1569C32.8492 61.4112 33.2019 61.5576 33.5615 61.5576C33.6504 61.5576 33.7406 61.5493 33.8281 61.5316C33.9156 61.5139 34.0017 61.4865 34.0838 61.4523C34.1672 61.4182 34.2465 61.3771 34.3203 61.3266C34.3955 61.2775 34.4652 61.22 34.5281 61.157C34.591 61.0941 34.6484 61.0244 34.6976 60.9492C34.7469 60.8754 34.7892 60.7961 34.8234 60.7141C34.8576 60.6307 34.8836 60.5445 34.9014 60.457C34.9191 60.3694 34.9287 60.2792 34.9287 60.1904C34.9287 60.1016 34.9191 60.0112 34.9014 59.9238Z" fill="#454545"/>
<path d="M61.7037 58.8233H38.7446C37.9895 58.8233 37.3774 59.4356 37.3774 60.1905C37.3774 60.9455 37.9895 61.5577 38.7446 61.5577H61.7037C62.4588 61.5577 63.0709 60.9455 63.0709 60.1905C63.0709 59.4356 62.4588 58.8233 61.7037 58.8233Z" fill="#454545"/>
</svg>
