<svg width="70" height="70" viewBox="0 0 70 70" fill="none" xmlns="http://www.w3.org/2000/svg">
<path d="M65.3321 1.16667H4.66785C2.09412 1.16667 0 3.26093 0 5.83452V44.3333C0 44.9772 0.522676 45.4999 1.16662 45.4999H68.8332C69.4772 45.4999 69.9999 44.9772 69.9999 44.3333V5.83452C70 3.26093 67.9059 1.16667 65.3321 1.16667ZM67.6666 43.1667H2.33338V5.83452C2.33338 4.5465 3.38105 3.50005 4.66785 3.50005H65.3321C66.6189 3.50005 67.6666 4.5465 67.6666 5.83452V43.1667Z" fill="#454545"/>
<path d="M68.8334 43.1667H1.16662C0.522676 43.1667 0 43.6893 0 44.3333V50.1654C0 52.7392 2.09412 54.8333 4.66785 54.8333H65.3321C67.9059 54.8333 70 52.7392 70 50.1654V44.3333C70 43.6893 69.4773 43.1667 68.8334 43.1667ZM67.6666 50.1656C67.6666 51.4536 66.6189 52.5 65.3321 52.5H4.66785C3.38105 52.5 2.33338 51.4536 2.33338 50.1656V45.5H67.6668V50.1656H67.6666Z" fill="#454545"/>
<path d="M38.5001 47.8334H31.5001C30.8562 47.8334 30.3335 48.3561 30.3335 49C30.3335 49.644 30.8562 50.1666 31.5001 50.1666H38.5001C39.1441 50.1666 39.6667 49.644 39.6667 49C39.6667 48.3561 39.1441 47.8334 38.5001 47.8334Z" fill="#454545"/>
<path d="M64.1664 5.8334H5.83313C5.18918 5.8334 4.6665 6.35608 4.6665 7.00003V44.3334C4.6665 44.9774 5.18918 45.5 5.83313 45.5H64.1665C64.8105 45.5 65.3331 44.9774 65.3331 44.3334V7.00003C65.3331 6.35608 64.8105 5.8334 64.1664 5.8334ZM62.9997 43.1666H6.99975V8.16665H62.9997V43.1666Z" fill="#454545"/>
<path d="M50.1667 61.8333H19.8335C17.9038 61.8333 16.3335 63.4037 16.3335 65.3333C16.3335 67.263 17.9038 68.8333 19.8335 68.8333H50.1669C52.0965 68.8333 53.6669 67.263 53.6669 65.3333C53.6669 63.4037 52.0964 61.8333 50.1667 61.8333ZM50.1667 66.5H19.8335C19.1896 66.5 18.6669 65.9762 18.6669 65.3333C18.6669 64.6905 19.1896 64.1667 19.8335 64.1667H50.1669C50.8108 64.1667 51.3335 64.6905 51.3335 65.3333C51.3335 65.9762 50.8108 66.5 50.1667 66.5Z" fill="#454545"/>
<path d="M47.8332 61.8334C43.9622 61.8334 41.9999 59.0859 41.9999 53.6668C41.9999 53.0228 41.4772 52.5001 40.8332 52.5001H29.1666C28.5227 52.5001 28 53.0228 28 53.6668C28 59.0859 26.0377 61.8334 22.1666 61.8334C21.5227 61.8334 21 62.356 21 63C21 63.6439 21.5227 64.1666 22.1666 64.1666H47.8332C48.4772 64.1666 48.9999 63.6439 48.9999 63C48.9999 62.356 48.4772 61.8334 47.8332 61.8334ZM27.8493 61.8334C29.2856 60.2421 30.1313 57.8725 30.3017 54.8334H39.6992C39.8683 57.8725 40.7142 60.2421 42.1515 61.8334H27.8493Z" fill="#454545"/>
<path d="M55.7483 35.5413L52.932 32.725L54.4988 31.1582C54.7893 30.8677 54.9059 30.4454 54.8056 30.0475C54.7052 29.6497 54.4031 29.3347 54.0099 29.2157L42.3433 25.7157C41.9315 25.592 41.487 25.7052 41.1836 26.0086C40.8791 26.3119 40.7672 26.7575 40.8907 27.1682L44.3908 38.8348C44.5086 39.2291 44.8247 39.5313 45.2226 39.6316C45.6192 39.7297 46.0427 39.6152 46.3333 39.3248L47.9829 37.674L50.7992 40.4915C51.0174 40.7107 51.3149 40.8332 51.624 40.8332C51.9331 40.8332 52.2306 40.7107 52.4488 40.4915L55.7481 37.1909C56.2044 36.7348 56.2044 35.9975 55.7483 35.5413ZM51.624 38.017L49.0597 35.4515C48.7622 35.154 48.3726 35.0057 47.9829 35.0057C47.592 35.0057 47.2024 35.155 46.9061 35.4502L46.0638 36.2925L43.7479 28.5727L51.4677 30.8886L50.5647 31.7916C50.3161 32.0413 50.1797 32.3727 50.1797 32.725C50.1797 33.0786 50.3174 33.4122 50.567 33.6595L53.2737 36.3661L51.624 38.017Z" fill="#454545"/>
<path d="M48.9998 10.5H16.3331C15.6892 10.5 15.1665 11.0226 15.1665 11.6666V17.5C15.1665 18.1439 15.6892 18.6666 16.3331 18.6666H48.9998C49.6437 18.6666 50.1664 18.1439 50.1664 17.5V11.6666C50.1664 11.0226 49.6437 10.5 48.9998 10.5ZM47.8331 16.3334H17.4997V12.8333H47.8331V16.3334Z" fill="#454545"/>
<path d="M30.3335 23.3334H21.0001C20.3562 23.3334 19.8335 23.8561 19.8335 24.5V29.1666C19.8335 29.8106 20.3562 30.3333 21.0001 30.3333H30.3335C30.9774 30.3333 31.5001 29.8106 31.5001 29.1666V24.5C31.5001 23.8561 30.9774 23.3334 30.3335 23.3334ZM29.1667 28H22.1667V25.6666H29.1667V28Z" fill="#454545"/>
<path d="M48.9997 10.5H16.3331C15.6892 10.5 15.1665 11.0226 15.1665 11.6666V33.8332C15.1665 34.4772 15.6892 34.9998 16.3331 34.9998H44.1069C44.4767 34.9998 44.8231 34.8261 45.0426 34.5297C45.2631 34.2334 45.3308 33.8507 45.2245 33.4972L43.7476 28.5727L48.6651 30.0486C49.0186 30.1548 49.4013 30.0871 49.6963 29.8666C49.9926 29.6473 50.1665 29.2996 50.1665 28.9309V11.6666C50.1664 11.0226 49.6437 10.5 48.9997 10.5ZM47.8331 27.363L42.3415 25.7157C41.9297 25.5919 41.4853 25.7051 41.1819 26.0085C40.8774 26.313 40.7654 26.7575 40.889 27.1694L42.5387 32.6667H17.4997V12.8333H47.8331V27.363Z" fill="#454545"/>
</svg>
